<svg id="Layer_1" data-name="Layer 1" xmlns="http://www.w3.org/2000/svg" viewBox="0 0 768 768"><title>clock-background</title><path d="M377.2,44.17a30.26,30.26,0,0,1,.37-4.64,14.33,14.33,0,0,1,1.37-4.4,9.07,9.07,0,0,1,2.73-3.27,8.29,8.29,0,0,1,8.88,0,8.88,8.88,0,0,1,2.73,3.27,14.62,14.62,0,0,1,1.38,4.4,29.34,29.34,0,0,1,0,9.29,14.62,14.62,0,0,1-1.38,4.4,8.88,8.88,0,0,1-2.73,3.27,8.34,8.34,0,0,1-8.88,0,9.07,9.07,0,0,1-2.73-3.27,14.33,14.33,0,0,1-1.37-4.4A30.29,30.29,0,0,1,377.2,44.17Zm3.12,0c0,.65,0,1.37.07,2.16a21.89,21.89,0,0,0,.28,2.39,15.37,15.37,0,0,0,.59,2.36,7.48,7.48,0,0,0,1.05,2.05,5.1,5.1,0,0,0,1.57,1.43,4.87,4.87,0,0,0,4.46,0,5.14,5.14,0,0,0,1.58-1.43,7.75,7.75,0,0,0,1-2.05,15.39,15.39,0,0,0,.6-2.36,21.85,21.85,0,0,0,.27-2.39c.05-.79.08-1.51.08-2.16s0-1.36-.08-2.15a22.31,22.31,0,0,0-.27-2.4,16,16,0,0,0-.6-2.36,7.53,7.53,0,0,0-1-2,5,5,0,0,0-1.58-1.43,4.87,4.87,0,0,0-4.46,0,5,5,0,0,0-1.57,1.43,7.28,7.28,0,0,0-1.05,2,16,16,0,0,0-.59,2.36,22.36,22.36,0,0,0-.28,2.4C380.34,42.81,380.32,43.53,380.32,44.17Z"/><path d="M549.9,96.49l9.92-9.66c.62-.6,1.16-1.15,1.63-1.66a10.49,10.49,0,0,0,1.17-1.48,5.7,5.7,0,0,0,.69-1.51,6.28,6.28,0,0,0,.22-1.74,4.38,4.38,0,0,0-.37-1.86,4.18,4.18,0,0,0-1-1.39,4.71,4.71,0,0,0-1.52-.9,5.49,5.49,0,0,0-1.88-.31,4.8,4.8,0,0,0-3.31,1.15,5.34,5.34,0,0,0-1.67,3.05l-3.38-.3a8,8,0,0,1,1-2.84A6.71,6.71,0,0,1,553.19,75a8.1,8.1,0,0,1,2.47-1.25,10.4,10.4,0,0,1,6.05,0,7.78,7.78,0,0,1,2.55,1.35A6.5,6.5,0,0,1,566,77.35a6.92,6.92,0,0,1,.66,3.09,8.88,8.88,0,0,1-.43,2.82,9.66,9.66,0,0,1-1.15,2.32,15.65,15.65,0,0,1-1.64,2c-.61.63-1.24,1.26-1.91,1.88l-8.1,7.61v.08h13.41v2.9H549.9Z"/><path d="M686.46,212.65h3.79v2.9h-3.79v6h-3.12v-6H672.19v-3.46l10.44-16.83h3.83Zm-3.12-13.75h-.08l-8.4,13.75h8.48Z"/><path d="M723.87,375.81l.07.07a5.78,5.78,0,0,1,1.73-.59,9.35,9.35,0,0,1,1.8-.19,8.33,8.33,0,0,1,3.18.6,7.21,7.21,0,0,1,2.53,1.69,7.9,7.9,0,0,1,1.65,2.62,9,9,0,0,1,.59,3.34,8.48,8.48,0,0,1-.67,3.46,7.4,7.4,0,0,1-1.85,2.58,8.34,8.34,0,0,1-2.81,1.63,10.7,10.7,0,0,1-7,0,8.29,8.29,0,0,1-2.8-1.63,7.56,7.56,0,0,1-1.86-2.58,8.64,8.64,0,0,1-.67-3.46,10.34,10.34,0,0,1,.71-4A22.37,22.37,0,0,1,720.3,376l7-11.11h3.64Zm2.75,2a6.3,6.3,0,0,0-2.23.39,5.25,5.25,0,0,0-1.8,1.11,5.3,5.3,0,0,0-1.21,1.77,6.15,6.15,0,0,0,0,4.62,5.22,5.22,0,0,0,1.21,1.75,5.43,5.43,0,0,0,1.8,1.12,6.73,6.73,0,0,0,4.46,0,5.53,5.53,0,0,0,1.8-1.12,5.22,5.22,0,0,0,1.21-1.75,6.28,6.28,0,0,0,0-4.62,5.12,5.12,0,0,0-3-2.88A6.34,6.34,0,0,0,726.62,377.78Z"/><path d="M676.38,540.86A6.77,6.77,0,0,1,677,538a6.42,6.42,0,0,1,1.58-2.16,7.28,7.28,0,0,1,2.38-1.39,9.07,9.07,0,0,1,5.94,0,7.28,7.28,0,0,1,2.38,1.39,6.56,6.56,0,0,1,1.58,2.16,6.77,6.77,0,0,1,.57,2.82,6.33,6.33,0,0,1-.29,1.86,6.24,6.24,0,0,1-.86,1.71,6,6,0,0,1-1.35,1.37,5.31,5.31,0,0,1-1.81.86v.07a6.77,6.77,0,0,1,2.16.88,6,6,0,0,1,1.63,1.5,6.78,6.78,0,0,1,1,2,7.52,7.52,0,0,1,.38,2.36,7.75,7.75,0,0,1-.65,3.22,7.24,7.24,0,0,1-1.79,2.43,7.65,7.65,0,0,1-2.67,1.53,10.67,10.67,0,0,1-6.58,0,7.65,7.65,0,0,1-2.67-1.53,7.24,7.24,0,0,1-1.79-2.43,8,8,0,0,1-.28-5.58,7.29,7.29,0,0,1,1-2,6,6,0,0,1,1.64-1.5,6.72,6.72,0,0,1,2.15-.88v-.07a5.17,5.17,0,0,1-1.8-.86,6,6,0,0,1-1.35-1.37,6.23,6.23,0,0,1-1.16-3.57Zm2.23,12.41a5.41,5.41,0,0,0,.41,2.12,4.9,4.9,0,0,0,1.13,1.65,5.5,5.5,0,0,0,1.68,1.08,5.42,5.42,0,0,0,5.79-1.08,4.92,4.92,0,0,0,1.14-1.65,5.69,5.69,0,0,0,0-4.24,4.92,4.92,0,0,0-1.14-1.65,5.52,5.52,0,0,0-5.79-1.08,5.5,5.5,0,0,0-1.68,1.08,4.9,4.9,0,0,0-1.13,1.65A5.45,5.45,0,0,0,678.61,553.27ZM679.5,541a4.18,4.18,0,1,0,1.21-3.12A4.29,4.29,0,0,0,679.5,541Z"/><path d="M549.4,682.25h-3.12V660h-.08l-4.72,4-1.85-2.27,7.06-5.72h2.71Z"/><path d="M558.09,669.1a31.47,31.47,0,0,1,.37-4.64,14.77,14.77,0,0,1,1.38-4.41,9.24,9.24,0,0,1,2.73-3.27,8.34,8.34,0,0,1,8.88,0,9.24,9.24,0,0,1,2.73,3.27,14.77,14.77,0,0,1,1.38,4.41,29.28,29.28,0,0,1,0,9.28,14.68,14.68,0,0,1-1.38,4.41,9.24,9.24,0,0,1-2.73,3.27,8.34,8.34,0,0,1-8.88,0,9.24,9.24,0,0,1-2.73-3.27,14.68,14.68,0,0,1-1.38-4.41A31.47,31.47,0,0,1,558.09,669.1Zm3.12,0c0,.64,0,1.36.08,2.16a21.89,21.89,0,0,0,.28,2.39,14.55,14.55,0,0,0,.59,2.36,7.53,7.53,0,0,0,1,2,4.9,4.9,0,0,0,1.58,1.43,4.87,4.87,0,0,0,4.46,0,5,5,0,0,0,1.58-1.43,7.53,7.53,0,0,0,1-2,14.55,14.55,0,0,0,.59-2.36,21.89,21.89,0,0,0,.28-2.39c0-.8.08-1.52.08-2.16s0-1.36-.08-2.15a21.79,21.79,0,0,0-.28-2.4,14.55,14.55,0,0,0-.59-2.36,7.53,7.53,0,0,0-1-2,5.16,5.16,0,0,0-1.58-1.44,5,5,0,0,0-4.46,0,5,5,0,0,0-1.58,1.44,7.53,7.53,0,0,0-1,2,14.55,14.55,0,0,0-.59,2.36,21.79,21.79,0,0,0-.28,2.4C561.24,667.74,561.21,668.46,561.21,669.1Z"/><path d="M201.38,97.82l9.92-9.66c.62-.59,1.16-1.14,1.64-1.65A10.54,10.54,0,0,0,214.11,85a5.6,5.6,0,0,0,.68-1.5,6.29,6.29,0,0,0,.23-1.75,4.37,4.37,0,0,0-.38-1.85,4,4,0,0,0-1-1.4,4.69,4.69,0,0,0-1.52-.89,5.5,5.5,0,0,0-1.88-.32,4.78,4.78,0,0,0-3.3,1.16,5.27,5.27,0,0,0-1.68,3l-3.38-.29a8.23,8.23,0,0,1,1-2.85,6.83,6.83,0,0,1,1.82-2.06,8.07,8.07,0,0,1,2.47-1.24,9.83,9.83,0,0,1,3-.43,10.09,10.09,0,0,1,3.09.46,7.85,7.85,0,0,1,2.54,1.36,6.56,6.56,0,0,1,1.75,2.23,7,7,0,0,1,.65,3.08,9,9,0,0,1-.43,2.83,9.85,9.85,0,0,1-1.15,2.32,16.2,16.2,0,0,1-1.64,2c-.6.63-1.24,1.25-1.91,1.87l-8.1,7.62v.07h13.41v2.9H201.38Z"/><path d="M223.15,97.82l9.92-9.66c.62-.59,1.17-1.14,1.64-1.65A10.54,10.54,0,0,0,235.88,85a5.64,5.64,0,0,0,.69-1.5,6.7,6.7,0,0,0,.22-1.75,4.37,4.37,0,0,0-.37-1.85,4.22,4.22,0,0,0-1-1.4,4.84,4.84,0,0,0-1.53-.89,5.44,5.44,0,0,0-1.87-.32,4.81,4.81,0,0,0-3.31,1.16,5.2,5.2,0,0,0-1.67,3l-3.38-.29a8.22,8.22,0,0,1,1-2.85,6.83,6.83,0,0,1,1.82-2.06,8.19,8.19,0,0,1,2.47-1.24,9.83,9.83,0,0,1,3-.43,10.09,10.09,0,0,1,3.09.46,7.85,7.85,0,0,1,2.54,1.36,6.44,6.44,0,0,1,1.75,2.23,7,7,0,0,1,.65,3.08,8.71,8.71,0,0,1-.43,2.83,9.48,9.48,0,0,1-1.15,2.32,17.06,17.06,0,0,1-1.63,2c-.61.63-1.25,1.25-1.92,1.87l-8.1,7.62v.07H240.1v2.9H223.15Z"/><path d="M78.53,219.34l9.92-9.66c.62-.6,1.17-1.15,1.64-1.66a10.49,10.49,0,0,0,1.17-1.48,5.49,5.49,0,0,0,.68-1.51,6.26,6.26,0,0,0,.23-1.74,4.54,4.54,0,0,0-.37-1.86,4,4,0,0,0-1-1.39,4.54,4.54,0,0,0-1.52-.9,5.49,5.49,0,0,0-1.88-.31,4.77,4.77,0,0,0-3.3,1.15A5.23,5.23,0,0,0,82.4,203l-3.39-.3a8.38,8.38,0,0,1,1-2.84,6.86,6.86,0,0,1,1.82-2.07,8.3,8.3,0,0,1,2.47-1.24,10.43,10.43,0,0,1,6.06,0A7.83,7.83,0,0,1,92.89,198a6.65,6.65,0,0,1,1.75,2.23,7,7,0,0,1,.65,3.09,8.61,8.61,0,0,1-.43,2.82,9.3,9.3,0,0,1-1.15,2.32,14.85,14.85,0,0,1-1.64,2c-.6.63-1.24,1.26-1.91,1.88l-8.1,7.61V220H95.47v2.89H78.53Z"/><path d="M99.86,209.75a30.26,30.26,0,0,1,.37-4.64,15.06,15.06,0,0,1,1.37-4.41,9.17,9.17,0,0,1,2.74-3.27,8.34,8.34,0,0,1,8.88,0A9.24,9.24,0,0,1,116,200.7a14.76,14.76,0,0,1,1.37,4.41,29.34,29.34,0,0,1,0,9.29,14.7,14.7,0,0,1-1.37,4.4,9.24,9.24,0,0,1-2.73,3.27,8.34,8.34,0,0,1-8.88,0,9.17,9.17,0,0,1-2.74-3.27,15,15,0,0,1-1.37-4.4A30.29,30.29,0,0,1,99.86,209.75Zm3.12,0c0,.65,0,1.36.07,2.16s.15,1.59.28,2.39a15.39,15.39,0,0,0,.6,2.36,7.46,7.46,0,0,0,1,2.05,5.14,5.14,0,0,0,1.58,1.43,4.87,4.87,0,0,0,4.46,0,5.22,5.22,0,0,0,1.57-1.43,7.46,7.46,0,0,0,1-2.05,15.39,15.39,0,0,0,.6-2.36c.13-.8.23-1.6.28-2.39s.07-1.51.07-2.16,0-1.36-.07-2.15-.15-1.59-.28-2.4a16,16,0,0,0-.6-2.36,7.26,7.26,0,0,0-1-2,5.09,5.09,0,0,0-1.57-1.43,4.87,4.87,0,0,0-4.46,0A5,5,0,0,0,105,200.8a7.26,7.26,0,0,0-1,2,16,16,0,0,0-.6,2.36c-.13.81-.23,1.6-.28,2.4S103,209.11,103,209.75Z"/><path d="M43.31,391.15H40.19V368.86h-.07l-4.72,4-1.86-2.27,7.06-5.72h2.71Z"/><path d="M54.53,371.28a6.78,6.78,0,0,1,.58-2.83,6.29,6.29,0,0,1,1.58-2.15,7.31,7.31,0,0,1,2.38-1.4,9.07,9.07,0,0,1,5.94,0,7.31,7.31,0,0,1,2.38,1.4A6.42,6.42,0,0,1,69,368.45a6.78,6.78,0,0,1,.57,2.83,6,6,0,0,1-.29,1.85A6.26,6.26,0,0,1,67,376.22a5.29,5.29,0,0,1-1.81.85v.08a6.45,6.45,0,0,1,2.16.87,6.16,6.16,0,0,1,1.63,1.5,7,7,0,0,1,1,2,8,8,0,0,1-.28,5.57A7.19,7.19,0,0,1,68,389.56a7.79,7.79,0,0,1-2.67,1.52,10.67,10.67,0,0,1-6.58,0,7.79,7.79,0,0,1-2.67-1.52,7.19,7.19,0,0,1-1.79-2.44,8,8,0,0,1-.28-5.57,7.21,7.21,0,0,1,1-2,6.2,6.2,0,0,1,1.64-1.5,6.48,6.48,0,0,1,2.15-.87v-.08a5.24,5.24,0,0,1-1.8-.85,6.3,6.3,0,0,1-1.35-1.38,6.23,6.23,0,0,1-1.16-3.56Zm2.23,12.41a5.4,5.4,0,0,0,.41,2.11,4.73,4.73,0,0,0,1.14,1.66,5.42,5.42,0,0,0,7.46,0,4.87,4.87,0,0,0,1.14-1.66,5.66,5.66,0,0,0,0-4.23,4.87,4.87,0,0,0-1.14-1.66,5.49,5.49,0,0,0-1.67-1.07,5.64,5.64,0,0,0-4.12,0,5.49,5.49,0,0,0-1.67,1.07,4.73,4.73,0,0,0-1.14,1.66A5.41,5.41,0,0,0,56.76,383.69Zm.9-12.27a4.15,4.15,0,1,0,1.2-3.12A4.29,4.29,0,0,0,57.66,371.42Z"/><path d="M90.05,559.4H86.93V537.11h-.08l-4.71,4-1.86-2.27,7.06-5.72h2.71Z"/><path d="M106,544.06l.07.07a5.78,5.78,0,0,1,1.73-.59,9.27,9.27,0,0,1,1.8-.19,8.33,8.33,0,0,1,3.18.6,7.08,7.08,0,0,1,2.52,1.69,7.76,7.76,0,0,1,1.66,2.62,9.23,9.23,0,0,1,.59,3.34,8.48,8.48,0,0,1-.67,3.46,7.4,7.4,0,0,1-1.85,2.58,8.34,8.34,0,0,1-2.81,1.63,10.7,10.7,0,0,1-7,0,8.19,8.19,0,0,1-2.8-1.63,7.3,7.3,0,0,1-1.86-2.58,8.48,8.48,0,0,1-.67-3.46,10.43,10.43,0,0,1,.71-4,22.76,22.76,0,0,1,1.78-3.41l7-11.11h3.65Zm2.75,2a6.26,6.26,0,0,0-2.23.39,5.05,5.05,0,0,0-3,2.88,6.15,6.15,0,0,0,0,4.62,5.19,5.19,0,0,0,1.2,1.75,5.47,5.47,0,0,0,1.81,1.12,6.49,6.49,0,0,0,2.23.38,6.57,6.57,0,0,0,2.23-.38,5.53,5.53,0,0,0,1.8-1.12,5.37,5.37,0,0,0,1.21-1.75,6.28,6.28,0,0,0,0-4.62,5.45,5.45,0,0,0-1.21-1.77,5.34,5.34,0,0,0-1.8-1.11A6.34,6.34,0,0,0,108.78,546Z"/><path d="M212.9,682.25h-3.12V660h-.08l-4.72,4-1.85-2.27,7.06-5.72h2.71Z"/><path d="M235.75,673.34h3.79v2.89h-3.79v6h-3.12v-6H221.48v-3.45L231.92,656h3.83Zm-3.12-13.75h-.08l-8.39,13.75h8.47Z"/><path d="M381.15,727.65H378V705.36H378l-4.72,4-1.85-2.27,7.06-5.72h2.71Z"/><path d="M390.29,724.09l9.92-9.66c.62-.6,1.16-1.15,1.63-1.66a10.49,10.49,0,0,0,1.17-1.48,5.84,5.84,0,0,0,.69-1.51,6.28,6.28,0,0,0,.22-1.74,4.38,4.38,0,0,0-.37-1.86,4.08,4.08,0,0,0-1-1.39,4.54,4.54,0,0,0-1.52-.9,5.49,5.49,0,0,0-1.88-.31,4.8,4.8,0,0,0-3.31,1.15,5.34,5.34,0,0,0-1.67,3l-3.38-.3a8,8,0,0,1,1-2.84,6.86,6.86,0,0,1,1.82-2.07,8.07,8.07,0,0,1,2.47-1.24,9.78,9.78,0,0,1,3-.43,10,10,0,0,1,3.08.47,7.78,7.78,0,0,1,2.55,1.35A6.65,6.65,0,0,1,406.4,705a7,7,0,0,1,.65,3.09,8.88,8.88,0,0,1-.43,2.82,9.66,9.66,0,0,1-1.15,2.32,15.65,15.65,0,0,1-1.64,2c-.61.63-1.24,1.26-1.91,1.87l-8.1,7.62v.08h13.41v2.89H390.29Z"/></svg>